<?xml version="1.0" encoding="iso-8859-1"?>
<!-- Uploaded to: SVG Repo, www.svgrepo.com, Generator: SVG Repo Mixer Tools -->
<svg fill="#000000" height="800px" width="800px" version="1.1" id="Layer_1" xmlns="http://www.w3.org/2000/svg" xmlns:xlink="http://www.w3.org/1999/xlink" 
	 viewBox="0 0 512.001 512.001" xml:space="preserve">
<g>
	<g>
		<path d="M406.937,150.376c-1.825-1.491-4.225-2.085-6.534-1.616l-11.821,2.401c-6.879-21.226-26.608-35.917-49.609-35.917
			c-0.642,0-1.279,0.025-1.915,0.048c-23.077-27.219-0.151-82.834,0.088-83.404c1.669-3.961-0.154-8.527-4.092-10.248l-19.794-8.649
			c-3.974-1.737-8.605,0.078-10.341,4.053c-15.646,35.808-7.806,64.452,1.527,82.176c3.833,7.278,8.204,13.319,12.178,18.039
			C271.461,92.996,269.722,8.633,269.709,7.752C269.654,3.455,266.154,0,261.856,0h-30.394c-4.338,0-7.854,3.517-7.854,7.854
			c0,53.713,25.594,85.438,47.065,102.595c6.773,5.412,13.533,9.727,19.738,13.14l-35.035,5.996
			c-2.655,0.455-4.892,2.237-5.926,4.724c-1.035,2.487-0.724,5.33,0.825,7.534c0.542,0.773,12.287,17.055,36.761,20.53
			c-0.161,1.666-0.249,3.352-0.249,5.06v19.827v45.161l-108.103,16.175c1.183-9.904-0.539-24.162-13.953-38.801
			c-15.156-16.54-7.613-29.131-6.52-30.762c2.524-3.319,1.949-7.949-1.234-10.652c-3.194-2.713-8.021-2.353-10.884,0.707
			c-0.432,0.461-10.684,11.468-20.073,26.36c-13.282,21.065-18.099,39.046-14.317,53.443c2.888,10.999,10.5,19.313,22.635,24.813
			c-12.836,16.436-19.526,32.074-19.858,46.506c-0.254,11.05,2.883,18.552,5.651,25.172c5.266,12.597,9.815,23.476-16.727,65.314
			c-1.475,2.326-1.625,5.256-0.393,7.72l44.621,89.243c1.331,2.661,4.05,4.342,7.025,4.342h18.899c2.53,0,4.905-1.219,6.381-3.275
			c1.475-2.056,1.87-4.696,1.061-7.093l-29.022-85.927l24.427-43.396c-0.836,9.022-3.149,12.817-11.291,26.164
			c-2.154,3.531-4.595,7.534-7.501,12.408c-1.371,2.3-1.475,5.139-0.279,7.534l44.621,89.243c1.33,2.661,4.05,4.342,7.025,4.342
			h18.899c2.53,0,4.905-1.219,6.381-3.275c1.475-2.056,1.87-4.696,1.06-7.093l-29.022-85.926l31.309-55.625
			c0.352-0.625,0.6-1.28,0.768-1.945c22.104-2.103,45.699-4.339,62.319-5.91v151.919c0,4.338,3.517,7.854,7.854,7.854h14.756
			c3.909,0,7.224-2.876,7.776-6.746l21.99-154.274c34.26-23.546,48.285-59.102,49.928-85.025
			c1.323-20.881-4.752-38.601-16.667-48.615c-10.73-9.017-17.671-16.614-22.054-22.226h37.692c4.338,0,7.854-3.516,7.854-7.854
			v-30.804C409.821,154.099,408.763,151.867,406.937,150.376z M239.516,15.708h14.836c0.991,14.871,4.768,48.099,19.126,76.414
			C252.535,72.488,241.139,46.848,239.516,15.708z M311.397,73.343c-2.681-12.053-2.624-26.381,3.044-42.693l5.505,2.405
			C316.99,41.647,312.567,56.804,311.397,73.343z M274.772,142.202l20.691-3.541c-1.746,2.631-3.263,5.424-4.516,8.359
			C284.346,146.318,278.964,144.416,274.772,142.202z M126.899,244.913c-3.342-12.698,5.1-30.195,14.508-44.369
			c1.882,6.32,5.522,13.075,11.741,19.863c13.372,14.593,10.197,27.902,8.519,32.411c-5.509,2.176-10.668,5.101-15.332,8.699
			C135.267,257.952,128.9,252.519,126.899,244.913z M190.89,411.05c-1.092,1.942-1.309,4.255-0.597,6.366l26.641,78.876h-3.103
			l-40.524-81.049c1.932-3.211,3.65-6.026,5.213-8.589c12.455-20.419,13.505-22.774,14.059-44.138
			c7.274-0.703,16.675-1.603,27.092-2.598L190.89,411.05z M376.223,229.364c7.938,6.671,12.086,19.978,11.096,35.597
			c-1.447,22.846-14.235,54.501-45.784,74.827c-1.915,1.234-3.2,3.239-3.522,5.495l-21.524,151.009h-0.088V343.594
			c0-2.212-0.932-4.321-2.568-5.809c-1.637-1.489-3.826-2.216-6.025-2.011c-39.17,3.701-130.508,12.349-132.659,12.707
			c-2.345,0.391-4.387,1.823-5.553,3.895L136.57,411.05c-1.092,1.942-1.309,4.255-0.597,6.366l26.64,78.876h-3.102l-40.479-80.958
			c12.2-19.769,18.714-34.891,20.431-47.359c1.769-12.846-1.743-21.243-4.839-28.652c-2.477-5.924-4.616-11.04-4.439-18.751
			c0.328-14.271,9.923-29.062,17.915-38.957c7.439-9.211,18.098-15.266,30.013-17.049l117.69-17.61
			c3.846-0.576,6.692-3.879,6.692-7.767v-44.074h42.75C348.986,201.619,357.614,213.725,376.223,229.364z M394.113,179.405h-44.03
			h-47.589v-11.973c0-20.115,16.365-36.48,36.48-36.48c18.019,0,33.164,12.892,36.011,30.653c0.338,2.113,1.525,3.995,3.283,5.214
			c1.759,1.218,3.938,1.665,6.035,1.24l9.809-1.993V179.405z"/>
	</g>
</g>
</svg>