<?xml version="1.0" encoding="iso-8859-1"?>
<!-- Uploaded to: SVG Repo, www.svgrepo.com, Generator: SVG Repo Mixer Tools -->
<svg fill="#000000" height="800px" width="800px" version="1.1" id="Layer_1" xmlns="http://www.w3.org/2000/svg" xmlns:xlink="http://www.w3.org/1999/xlink" 
	 viewBox="0 0 512.001 512.001" xml:space="preserve">
<g>
	<g>
		<path d="M401.096,348.06c0.197-0.052,0.398-0.101,0.595-0.154c0.229-0.06,0.45-0.122,0.678-0.183
			C401.934,347.81,401.51,347.924,401.096,348.06z"/>
	</g>
</g>
<g>
	<g>
		<path d="M424.735,448.244c-0.063-0.438-5.973-41.375-8.959-81.907c-2.796,0.797-5.64,1.588-8.579,2.365
			c-4.131,1.094-8.329,2.141-12.575,3.145c2.064,26.425,5.225,52.448,7.152,67.186h-13.691
			c-4.184-10.424-12.49-33.038-18.618-61.896c-3.623,0.671-7.265,1.317-10.933,1.92c-3.384,0.56-6.835,1.089-10.311,1.599
			c8.958,42.792,22.331,72.285,22.94,73.612c1.752,3.825,5.573,6.276,9.779,6.276h33.15c3.123,0,6.091-1.357,8.135-3.718
			S425.183,451.334,424.735,448.244z"/>
	</g>
</g>
<g>
	<g>
		<path d="M321.358,363.633c0.14-0.095,0.285-0.183,0.43-0.271C321.643,363.45,321.499,363.538,321.358,363.633z"/>
	</g>
</g>
<g>
	<g>
		<path d="M320.528,364.254c0.128-0.106,0.261-0.207,0.395-0.307C320.79,364.047,320.658,364.147,320.528,364.254z"/>
	</g>
</g>
<g>
	<g>
		<path d="M319.764,364.95c0.118-0.118,0.241-0.23,0.365-0.343C320.005,364.719,319.882,364.831,319.764,364.95z"/>
	</g>
</g>
<g>
	<g>
		<path d="M319.069,365.717c0.108-0.131,0.22-0.256,0.333-0.382C319.289,365.46,319.176,365.585,319.069,365.717z"/>
	</g>
</g>
<g>
	<g>
		<path d="M316.678,371.407c0.018-0.175,0.045-0.349,0.072-0.522C316.722,371.058,316.696,371.231,316.678,371.407z"/>
	</g>
</g>
<g>
	<g>
		<path d="M316.841,370.358c0.035-0.173,0.08-0.343,0.124-0.513C316.921,370.015,316.877,370.185,316.841,370.358z"/>
	</g>
</g>
<g>
	<g>
		<path d="M316.617,372.485c0.001-0.18,0.011-0.357,0.019-0.535C316.628,372.129,316.619,372.306,316.617,372.485z"/>
	</g>
</g>
<g>
	<g>
		<path d="M322.246,363.094c0.154-0.084,0.312-0.159,0.47-0.236C322.558,362.935,322.4,363.01,322.246,363.094z"/>
	</g>
</g>
<g>
	<g>
		<path d="M317.105,369.343c0.053-0.17,0.113-0.336,0.174-0.501C317.218,369.007,317.157,369.173,317.105,369.343z"/>
	</g>
</g>
<g>
	<g>
		<path d="M317.914,367.431c0.084-0.154,0.174-0.304,0.265-0.454C318.087,367.127,317.996,367.276,317.914,367.431z"/>
	</g>
</g>
<g>
	<g>
		<path d="M317.463,368.366c0.069-0.164,0.145-0.324,0.223-0.483C317.608,368.042,317.533,368.202,317.463,368.366z"/>
	</g>
</g>
<g>
	<g>
		<path d="M318.45,366.545c0.096-0.142,0.198-0.281,0.301-0.418C318.648,366.264,318.546,366.402,318.45,366.545z"/>
	</g>
</g>
<g>
	<g>
		<path d="M323.19,362.641c0.168-0.07,0.34-0.134,0.512-0.196C323.528,362.508,323.357,362.57,323.19,362.641z"/>
	</g>
</g>
<g>
	<g>
		<path d="M346.635,448.247c-0.049-0.341-4.548-31.508-7.675-66.297c-3.437,0.452-6.889,0.887-10.368,1.285
			c-0.415,0.047-0.829,0.07-1.239,0.07c-5.392,0-10.043-4.047-10.672-9.531c-0.029-0.248-0.037-0.495-0.047-0.741
			c0.005,0.123,0.001,0.245,0.011,0.369c2.056,25.835,5.137,51.165,7.028,65.633h-13.691c-4.367-10.878-13.224-35.016-19.399-65.642
			c-0.871-5.066-5.286-8.916-10.6-8.916c-1.105,0-2.17,0.168-3.173,0.478c0.083-0.006,0.165-0.013,0.247-0.019
			c5.902-0.487,11.111,3.925,11.594,9.846c0.483,5.92-3.925,11.111-9.846,11.594c-2.487,0.202-4.911,0.379-7.325,0.53
			c8.907,39.432,21.029,66.162,21.58,67.364c1.752,3.825,5.573,6.277,9.78,6.277h33.15c3.121,0,6.09-1.357,8.134-3.717
			C346.166,454.469,347.083,451.337,346.635,448.247z"/>
	</g>
</g>
<g>
	<g>
		<path d="M325.226,362.014c0.19-0.039,0.384-0.068,0.578-0.096C325.61,361.947,325.416,361.976,325.226,362.014z"/>
	</g>
</g>
<g>
	<g>
		<path d="M324.183,362.28c0.181-0.056,0.366-0.103,0.552-0.151C324.549,362.177,324.364,362.224,324.183,362.28z"/>
	</g>
</g>
<g>
	<g>
		<path d="M226.366,448.246c-0.047-0.323-4.174-28.907-7.267-61.871c-4.584-0.478-9.135-1.082-13.632-1.822
			c-2.776-0.454-5.531-0.971-8.275-1.522c1.99,22.356,4.557,43.341,6.212,56.003H189.71c-4.23-10.528-12.67-33.515-18.834-62.961
			c-6.249-2.073-12.372-4.405-18.334-7.012c-1.806-0.787-3.593-1.608-5.368-2.444c8.635,50.177,24.904,86.092,25.618,87.65
			c1.751,3.826,5.573,6.278,9.78,6.278h33.151c3.122,0,6.091-1.357,8.134-3.718C225.898,454.468,226.815,451.335,226.366,448.246z"
			/>
	</g>
</g>
<g>
	<g>
		<path d="M288.652,374.78c-0.483-5.921-5.692-10.333-11.594-9.846c-0.083,0.006-0.165,0.013-0.247,0.019
			c-10.728,0.869-19.931,1.209-32.725,1.209c-11.872,0-23.688-0.954-35.141-2.84c-16.747-2.729-32.824-7.429-47.794-13.976
			c-9.911-4.321-19.306-9.456-27.948-15.278c-2.082-1.395-4.186-2.884-6.254-4.423c-4.767-3.545-11.504-2.559-15.051,2.207
			c-3.546,4.766-2.559,11.504,2.206,15.051c0.738,0.549,1.483,1.08,2.228,1.616c0.026-1.972,0.067-3.935,0.133-5.883
			c0.202-5.937,5.213-10.593,11.116-10.383c5.937,0.202,10.586,5.179,10.384,11.117c-0.206,6.072-0.185,12.33,0.005,18.622
			c3.016,1.613,6.085,3.157,9.205,4.625c1.776,0.836,3.563,1.658,5.368,2.444c5.962,2.607,12.085,4.939,18.334,7.012
			c8.546,2.833,17.339,5.154,26.316,6.957c2.744,0.551,5.499,1.069,8.275,1.522c4.497,0.74,9.048,1.345,13.633,1.822
			c8.247,0.86,16.605,1.299,24.985,1.299c10.413,0,18.826-0.23,27.394-0.769c2.414-0.152,4.839-0.327,7.325-0.53
			C284.726,385.891,289.135,380.7,288.652,374.78z"/>
	</g>
</g>
<g>
	<g>
		<path d="M358.127,136.86c-0.01,0.016-0.017,0.031-0.026,0.047c0.045-0.08,0.094-0.157,0.137-0.238
			C358.201,136.735,358.163,136.796,358.127,136.86z"/>
	</g>
</g>
<g>
	<g>
		<path d="M282.722,91.376c-5.758-1.455-11.608,2.034-13.063,7.794c-1.455,5.759,2.035,11.608,7.794,13.063
			c19.176,4.845,38.731,12.876,57.082,23.394c1.477-3.06,3.08-6.166,4.817-9.271c1.853-3.31,3.781-6.459,5.773-9.467
			C325.009,105.338,304.065,96.768,282.722,91.376z"/>
	</g>
</g>
<g>
	<g>
		<path d="M244.739,85.378c-1.511-0.093-3.015-0.17-4.512-0.234c-5.926-0.301-10.954,4.347-11.21,10.282
			c-0.256,5.935,4.349,10.954,10.283,11.21c1.371,0.06,2.748,0.131,4.13,0.215c0.224,0.014,0.445,0.02,0.665,0.02
			c5.642,0,10.378-4.395,10.726-10.102C255.182,90.839,250.669,85.739,244.739,85.378z"/>
	</g>
</g>
<g>
	<g>
		<path d="M218.035,95.685c-0.597-5.909-5.871-10.215-11.783-9.619c-42.495,4.295-79.21,20.498-106.175,46.858
			c-6.896,6.741-13.062,14.062-18.48,21.894c2.82,2.745,5.731,5.198,8.702,7.266c4.358,3.034,5.77,8.713,3.596,13.366
			c22.059-38.005,62.312-62.705,114.521-67.982C214.326,106.87,218.633,101.595,218.035,95.685z"/>
	</g>
</g>
<g>
	<g>
		<path d="M148.166,447.616c-0.103-0.497-8.929-43.823-10.199-85.626c-0.189-6.29-0.211-12.548-0.004-18.62
			c0.202-5.937-4.447-10.913-10.384-11.117c-5.903-0.209-10.913,4.447-11.115,10.383c-0.067,1.948-0.108,3.911-0.133,5.883
			c-0.44,34.193,5.047,71.375,8.361,90.515h-13.017c-9.719-24.339-42.511-114.05-36.185-201.744
			c1.619-22.43,7.639-42.686,17.461-60.194c-2.093,2.976-5.421,4.573-8.806,4.573c-2.121,0-4.263-0.626-6.136-1.93
			c-2.563-1.784-5.082-3.796-7.554-5.969c-9.226,18.669-14.801,39.537-16.42,61.971c-7.765,107.645,38.635,213.93,40.614,218.401
			c1.723,3.893,5.579,6.403,9.837,6.403h33.15c3.233,0,6.296-1.455,8.337-3.963C148.012,454.076,148.819,450.782,148.166,447.616z"
			/>
	</g>
</g>
<g>
	<g>
		<path d="M384.104,170.433c-0.029-0.167-0.045-0.335-0.066-0.502C384.06,170.099,384.075,170.267,384.104,170.433z"/>
	</g>
</g>
<g>
	<g>
		<path d="M384.331,171.447c-0.046-0.167-0.079-0.336-0.116-0.503C384.253,171.112,384.286,171.28,384.331,171.447z"/>
	</g>
</g>
<g>
	<g>
		<path d="M383.976,169.407c-0.013-0.165-0.012-0.329-0.017-0.494C383.964,169.078,383.964,169.242,383.976,169.407z"/>
	</g>
</g>
<g>
	<g>
		<path d="M385.605,174.324c-0.092-0.146-0.172-0.299-0.257-0.449C385.432,174.025,385.511,174.177,385.605,174.324z"/>
	</g>
</g>
<g>
	<g>
		<path d="M383.947,168.373c0.003-0.16,0.018-0.321,0.029-0.481C383.965,168.054,383.95,168.213,383.947,168.373z"/>
	</g>
</g>
<g>
	<g>
		<path d="M384.657,172.438c-0.062-0.162-0.112-0.329-0.166-0.495C384.545,172.108,384.595,172.274,384.657,172.438z"/>
	</g>
</g>
<g>
	<g>
		<path d="M385.082,173.399c-0.079-0.156-0.143-0.317-0.214-0.477C384.938,173.082,385.003,173.243,385.082,173.399z"/>
	</g>
</g>
<g>
	<g>
		<path d="M386.609,175.653c0.099,0.112,0.188,0.23,0.293,0.34c0.015,0.015,0.031,0.028,0.046,0.044
			C386.829,175.913,386.722,175.781,386.609,175.653z"/>
	</g>
</g>
<g>
	<g>
		<path d="M384.017,167.343c0.018-0.155,0.048-0.309,0.073-0.463C384.064,167.034,384.034,167.188,384.017,167.343z"/>
	</g>
</g>
<g>
	<g>
		<path d="M385.275,163.396c0.079-0.144,0.171-0.282,0.257-0.422C385.446,163.114,385.354,163.253,385.275,163.396z"/>
	</g>
</g>
<g>
	<g>
		<path d="M386.489,161.635c0.112-0.131,0.236-0.256,0.355-0.383C386.726,161.379,386.601,161.503,386.489,161.635z"/>
	</g>
</g>
<g>
	<g>
		<path d="M416.157,82.639c-1.579-5.013-6.552-8.158-11.758-7.422c-22.988,3.231-43.313,17.575-59.274,41.673
			c-1.992,3.007-3.92,6.157-5.772,9.466c-1.737,3.105-3.34,6.211-4.817,9.271c-10.443,21.636-14.552,40.989-14.745,41.913
			c-1.211,5.816,2.521,11.512,8.337,12.724c0.74,0.155,1.477,0.228,2.204,0.228c4.989,0,9.462-3.489,10.52-8.565
			c0.047-0.226,4.844-22.822,17.249-45.018c0.009-0.016,0.017-0.031,0.026-0.047c0.037-0.066,0.074-0.126,0.111-0.19
			c11.188-19.91,24.505-32.606,39.692-37.868c3.033,15.565,6.199,45.975-10.641,61.984c-0.015,0.015-0.028,0.031-0.044,0.045
			c4.258-4.094,11.027-3.995,15.158,0.243c2.28,2.341,4.429,4.435,6.508,6.461c0.148,0.145,0.295,0.287,0.442,0.431
			C432.313,135.325,416.886,84.956,416.157,82.639z"/>
	</g>
</g>
<g>
	<g>
		<path d="M385.833,162.493c0.096-0.14,0.205-0.272,0.309-0.409C386.038,162.219,385.93,162.353,385.833,162.493z"/>
	</g>
</g>
<g>
	<g>
		<path d="M384.185,166.321c0.032-0.15,0.076-0.298,0.115-0.446C384.261,166.023,384.217,166.17,384.185,166.321z"/>
	</g>
</g>
<g>
	<g>
		<path d="M384.814,164.34c0.062-0.145,0.137-0.286,0.205-0.428C384.951,164.054,384.876,164.195,384.814,164.34z"/>
	</g>
</g>
<g>
	<g>
		<path d="M384.451,165.318c0.047-0.147,0.106-0.291,0.159-0.438C384.556,165.027,384.498,165.171,384.451,165.318z"/>
	</g>
</g>
<g>
	<g>
		<path d="M386.225,175.204c-0.105-0.134-0.198-0.275-0.296-0.413C386.027,174.93,386.12,175.07,386.225,175.204z"/>
	</g>
</g>
<g>
	<g>
		<path d="M503.954,256.244c-14.129-3.696-52.917-18.167-62.585-40.462c-12.284-28.355-21.046-37.115-32.018-47.816
			c-0.147-0.144-0.294-0.287-0.442-0.431c-2.078-2.026-4.227-4.121-6.508-6.461c-4.13-4.238-10.899-4.337-15.157-0.242
			c-0.017,0.017-0.037,0.031-0.054,0.047c-0.123,0.119-0.23,0.248-0.346,0.373c-0.119,0.127-0.243,0.252-0.355,0.383
			c-0.124,0.145-0.233,0.298-0.347,0.449c-0.103,0.136-0.213,0.269-0.309,0.409c-0.109,0.157-0.202,0.321-0.302,0.482
			c-0.086,0.141-0.177,0.279-0.257,0.422c-0.094,0.169-0.172,0.343-0.256,0.515c-0.069,0.143-0.143,0.283-0.205,0.428
			c-0.076,0.177-0.138,0.359-0.204,0.54c-0.054,0.146-0.113,0.29-0.159,0.438c-0.058,0.184-0.102,0.37-0.151,0.556
			c-0.039,0.148-0.083,0.296-0.115,0.446c-0.04,0.185-0.066,0.372-0.096,0.56c-0.025,0.154-0.055,0.308-0.073,0.463
			c-0.021,0.183-0.029,0.367-0.04,0.551c-0.011,0.16-0.026,0.321-0.029,0.481c-0.003,0.18,0.006,0.359,0.012,0.539
			c0.005,0.165,0.004,0.329,0.017,0.494c0.013,0.175,0.04,0.35,0.062,0.525c0.021,0.168,0.037,0.336,0.066,0.502
			c0.03,0.171,0.073,0.34,0.111,0.51c0.038,0.168,0.07,0.337,0.116,0.503c0.046,0.168,0.105,0.331,0.159,0.496
			c0.054,0.166,0.103,0.332,0.166,0.495c0.062,0.165,0.139,0.324,0.211,0.485c0.07,0.159,0.136,0.321,0.214,0.477
			c0.081,0.161,0.175,0.318,0.266,0.477c0.085,0.15,0.165,0.302,0.257,0.449c0.101,0.159,0.215,0.312,0.326,0.468
			c0.098,0.138,0.19,0.279,0.296,0.413c0.12,0.154,0.254,0.299,0.384,0.447c0.112,0.128,0.219,0.26,0.339,0.384
			c0.017,0.017,0.03,0.037,0.047,0.054c2.473,2.535,4.721,4.728,6.896,6.847c10.223,9.967,16.976,16.551,27.739,41.398
			c12.257,28.267,50.162,43.989,67.794,49.942l-5.183,40.606c-9.186,5.734-35.769,20.57-81.874,32.84
			c-0.228,0.06-0.448,0.123-0.677,0.183c-0.197,0.053-0.398,0.101-0.595,0.154c-14.661,3.864-30.151,7.152-46.069,9.774
			c-9.312,1.542-19.03,2.898-28.885,4.028c-0.114,0.013-0.224,0.04-0.337,0.056c-0.194,0.028-0.388,0.057-0.578,0.096
			c-0.166,0.033-0.328,0.074-0.492,0.115c-0.185,0.046-0.37,0.094-0.552,0.151c-0.164,0.051-0.323,0.108-0.482,0.166
			c-0.172,0.062-0.344,0.126-0.512,0.196c-0.16,0.068-0.316,0.142-0.472,0.217c-0.158,0.076-0.316,0.153-0.47,0.236
			c-0.156,0.085-0.307,0.175-0.458,0.268c-0.145,0.088-0.29,0.177-0.43,0.271c-0.148,0.1-0.292,0.207-0.435,0.314
			c-0.133,0.1-0.267,0.201-0.395,0.307c-0.138,0.114-0.27,0.232-0.401,0.353c-0.124,0.113-0.246,0.225-0.365,0.343
			c-0.125,0.125-0.243,0.254-0.361,0.384c-0.113,0.126-0.227,0.251-0.333,0.382c-0.11,0.133-0.214,0.271-0.317,0.41
			c-0.103,0.138-0.205,0.276-0.301,0.418c-0.096,0.141-0.184,0.286-0.272,0.431c-0.091,0.151-0.181,0.3-0.265,0.454
			c-0.081,0.148-0.154,0.3-0.227,0.452c-0.077,0.159-0.154,0.319-0.223,0.483c-0.067,0.156-0.125,0.315-0.184,0.475
			c-0.061,0.166-0.122,0.332-0.174,0.501c-0.052,0.166-0.096,0.333-0.14,0.501c-0.044,0.17-0.088,0.34-0.124,0.513
			c-0.037,0.174-0.065,0.351-0.091,0.527c-0.027,0.173-0.054,0.346-0.072,0.522c-0.019,0.18-0.029,0.362-0.04,0.545
			c-0.01,0.177-0.019,0.355-0.019,0.535c-0.001,0.181,0.008,0.364,0.016,0.546c0.012,0.246,0.019,0.493,0.047,0.741
			c0.629,5.486,5.28,9.531,10.672,9.531c0.41,0,0.824-0.023,1.239-0.071c3.479-0.399,6.931-0.834,10.368-1.285
			c3.114-0.41,6.201-0.84,9.261-1.29c3.475-0.512,6.926-1.039,10.311-1.599c3.668-0.604,7.31-1.249,10.933-1.92
			c8.545-1.584,16.952-3.351,25.156-5.29c4.248-1.005,8.445-2.051,12.575-3.145c2.941-0.778,5.784-1.568,8.579-2.365
			c56.692-16.156,83.707-35.675,84.881-36.539c2.373-1.744,3.927-4.384,4.301-7.306l6.955-54.477
			C512.597,262.651,509.185,257.612,503.954,256.244z"/>
	</g>
</g>
<g>
	<g>
		<path d="M374.624,227.603c-14.937,0-27.089,12.146-27.089,27.076c0,5.94,4.817,10.756,10.756,10.756
			c5.94,0,10.756-4.816,10.756-10.756c0-3.068,2.501-5.563,5.576-5.563c3.069,0,5.564,2.495,5.564,5.563
			c0,5.94,4.817,10.756,10.756,10.756s10.756-4.817,10.756-10.756C401.7,239.749,389.553,227.603,374.624,227.603z"/>
	</g>
</g>
<g>
	<g>
		<path d="M36.775,123.696c-0.002-0.006-0.004-0.012-0.006-0.017c-1.653-4.375-2.999-8.643-4.076-12.791
			c-5.966,0.114-12.492-0.61-19.543-2.217c-5.792-1.323-11.559,2.306-12.878,8.097c-1.32,5.791,2.305,11.557,8.097,12.877
			c8.141,1.855,15.875,2.784,23.147,2.784c2.983,0,5.884-0.162,8.706-0.474C38.985,129.242,37.83,126.487,36.775,123.696z"/>
	</g>
</g>
<g>
	<g>
		<path d="M89.11,78.361c-1.449-15.274-11.317-26.056-24.554-26.829c-15.014-0.888-23.328,5.982-27.675,11.892
			c-7.94,10.799-9.326,27.685-4.19,47.464c1.078,4.149,2.423,8.417,4.076,12.791c0.003,0.005,0.005,0.011,0.008,0.016
			c-0.002-0.006-0.004-0.012-0.008-0.017c-2.1-5.558,0.703-11.765,6.26-13.864c5.557-2.099,11.764,0.702,13.864,6.26
			c1.279,3.385,2.725,6.699,4.3,9.923C81.574,115.9,90.753,95.674,89.11,78.361z M53.561,105.696
			c-3.789-14.512-2.676-25.001,0.653-29.528c1.114-1.516,3.003-3.202,7.765-3.202c0.417,0,0.857,0.014,1.32,0.041
			c3.611,0.211,4.326,6.653,4.395,7.385C68.39,87.735,64.891,99.104,53.561,105.696z"/>
	</g>
</g>
<g>
	<g>
		<path d="M90.298,162.084c-2.97-2.067-5.88-4.522-8.702-7.266c-7.846-7.634-14.947-17.648-20.405-28.82
			c-1.575-3.225-3.021-6.538-4.3-9.923c-2.1-5.558-8.306-8.359-13.864-6.26c-5.558,2.099-8.36,8.306-6.26,13.864
			c0.002,0.005,0.004,0.012,0.008,0.017c1.055,2.79,2.209,5.546,3.447,8.259c7.515,16.476,18.24,31.282,30.23,41.817
			c2.472,2.173,4.992,4.184,7.554,5.969c1.874,1.303,4.016,1.929,6.136,1.929c3.385,0,6.714-1.596,8.806-4.573
			c0.01-0.014,0.022-0.026,0.031-0.04c0.359-0.516,0.656-1.056,0.913-1.607C96.067,170.796,94.656,165.119,90.298,162.084z"/>
	</g>
</g>
</svg>