<?xml version="1.0" encoding="iso-8859-1"?>
<!-- Uploaded to: SVG Repo, www.svgrepo.com, Generator: SVG Repo Mixer Tools -->
<!DOCTYPE svg PUBLIC "-//W3C//DTD SVG 1.1//EN" "http://www.w3.org/Graphics/SVG/1.1/DTD/svg11.dtd">
<svg fill="#000000" height="800px" width="800px" version="1.1" id="Capa_1" xmlns="http://www.w3.org/2000/svg" xmlns:xlink="http://www.w3.org/1999/xlink" 
	 viewBox="0 0 448.54 448.54" xml:space="preserve">
<g>
	<path d="M434.402,340.74l-19.829-14.566c8.852-11.416,13.128-23.258,12.731-35.319c-0.893-27.212-25.438-48.739-43.359-64.458
		c-0.276-0.242-0.54-0.475-0.813-0.715c4.091-19.316-5.434-41.973-21.734-68.941c-18.823-31.142-35.08-58.037-62.283-58.037
		c-10.347,0-21.393,3.764-34.764,11.846c-14.35,8.673-33.174,23.064-30.982,47.786c0.359,4.047,1.232,8.158,2.553,12.419
		c-18.496,35.183-23.265,81.931-12.528,122.075L117.716,398.542c-0.504,0.074-0.961,0.114-1.402,0.114
		c-3.784-0.001-10.4-3.45-20.228-10.547c-15.919-11.497-31.345-24.342-45.847-38.177c-6.48-6.18-12.696-7.478-16.771-7.478
		c-4.556,0-8.89,1.506-12.883,4.476c-5.251,3.906-9.289,11.101-10.289,18.329c-0.861,6.228,0.605,12.177,4.128,16.751
		c9.197,11.936,48.26,41.232,66.083,48.112c4.645,1.792,9.664,3.542,15.476,3.542c10.721,0,20.823-5.647,33.762-18.868
		c0.002-0.001,0.003-0.003,0.005-0.004l111.308-111.347c0.423-0.355,0.807-0.747,1.162-1.163l33.688-33.7
		c7.668-0.862,14.885-2.867,21.472-5.916c4.197,2.8,8.608,4.968,13.269,6.35c-0.645,9.481-0.564,24.151,3.252,41.395
		c5.793,26.176,21.602,63.448,63.764,95.064l-6.81,30.91c-1.189,5.394,2.221,10.73,7.614,11.918c0.725,0.16,1.448,0.236,2.161,0.236
		c4.591,0,8.728-3.182,9.756-7.85l8.221-37.31c0.869-3.944-0.72-8.024-4.027-10.341c-32.613-22.853-53.119-51.805-60.948-86.051
		c-3.583-15.671-3.562-28.962-2.988-37.015c7.543-1.375,15.506-4.62,24.126-9.831c8.265-4.995,14.58-10.28,19.2-15.885
		c15.349,13.535,32.777,29.93,33.346,47.255c0.313,9.521-4.448,19.064-14.554,29.175c-2.061,2.062-3.12,4.921-2.898,7.829
		c0.221,2.907,1.7,5.573,4.051,7.299l28.648,21.044c1.783,1.311,3.857,1.941,5.912,1.941c3.074,0,6.107-1.413,8.067-4.081
		C439.811,350.268,438.853,344.009,434.402,340.74z M246.933,195.302c3.77,6.9,8.205,14.363,13.209,22.642
		c4.831,7.992,9.872,15.804,15.248,22.871l-35.232,35.244C235.451,249.388,237.945,220.028,246.933,195.302z M95.983,413.665
		c-2.381,0-5.042-0.954-8.272-2.201c-14.149-5.462-50.269-32.351-57.441-41.661c-0.891-1.156,0.783-5.648,2.255-6.827
		c0.638-0.475,0.943-0.522,0.945-0.522c0.195,0,1.269,0.331,2.966,1.95c15.157,14.459,31.288,27.89,47.941,39.918
		c5.332,3.85,9.921,6.823,14.031,9.038C97.251,413.665,96.474,413.665,95.983,413.665z M344.424,243.025
		c-7.069,4.273-13.186,6.734-18.583,7.473c-0.611-0.266-1.257-0.475-1.934-0.619c-1.946-0.411-3.876-0.219-5.606,0.436
		c-0.795-0.16-1.591-0.364-2.391-0.617c4.433-4.473,8.247-9.651,11.323-15.462c14.079-26.598,10.152-62.077-10.773-97.34
		c-2.817-4.75-8.954-6.313-13.703-3.496c-4.749,2.818-6.314,8.954-3.496,13.703c13.44,22.649,18.695,44.822,15.321,63.109
		c-3.607-1.449-7.886-0.714-10.806,2.208l-14.068,14.073c-3.917-5.336-8.043-11.607-12.448-18.895
		c-13.342-22.074-22.871-38.655-23.968-51.028c-0.698-7.871,1.413-16.819,21.406-28.904c9.977-6.03,17.964-8.962,24.418-8.962
		c14.352,0,25.288,15.495,45.167,48.383c16.385,27.108,21.837,43.268,19.213,54.78c-1.537,1.792-2.335,3.976-2.406,6.176
		C357.846,233.774,352.12,238.373,344.424,243.025z"/>
	<path d="M232.651,116.155c10.552,0,20.931-2.902,30.015-8.393c27.404-16.564,36.222-52.336,19.656-79.742
		C271.875,10.737,252.811,0,232.57,0c-10.548,0-20.914,2.896-29.979,8.375c-27.4,16.563-36.221,52.326-19.661,79.723
		C193.55,105.666,212.137,116.155,232.651,116.155z M212.937,25.491C218.881,21.898,225.67,20,232.57,20
		c13.484,0,25.685,6.866,32.637,18.366c10.86,17.968,5.079,41.42-12.887,52.28c-5.963,3.604-12.764,5.509-19.669,5.509
		c-13.451,0-25.64-6.88-32.604-18.403C189.191,59.792,194.974,36.349,212.937,25.491z"/>
	<path d="M238.884,395.731h-50.491c-5.522,0-10,4.477-10,10v28.37c0,5.523,4.478,10,10,10h50.491c5.522,0,10-4.477,10-10v-28.37
		C248.884,400.208,244.406,395.731,238.884,395.731z M228.884,424.101h-30.491v-8.37h30.491V424.101z"/>
</g>
</svg>