<?xml version="1.0" encoding="utf-8"?>

<!DOCTYPE svg PUBLIC "-//W3C//DTD SVG 1.1//EN" "http://www.w3.org/Graphics/SVG/1.1/DTD/svg11.dtd">
<!-- Uploaded to: SVG Repo, www.svgrepo.com, Generator: SVG Repo Mixer Tools -->
<svg height="800px" width="800px" version="1.1" id="_x32_" xmlns="http://www.w3.org/2000/svg" xmlns:xlink="http://www.w3.org/1999/xlink" 
	 viewBox="0 0 512 512"  xml:space="preserve">
<style type="text/css">
	.st0{fill:#000000;}
</style>
<g>
	<path class="st0" d="M504.368,71.512c-2.43-8.703-5.402-16.57-8.956-23.522c-3.554-6.97-7.667-13.068-12.693-18.121
		c-5.062-5.035-11.16-9.148-18.112-12.702c-10.446-5.305-22.921-9.365-37.192-12.197c-14.261-2.822-30.308-4.382-47.75-4.382
		c-37.505,0.018-81.482,7.223-127.072,25.299c-45.59,18.078-92.756,47.071-136.194,90.526
		c-43.638,43.621-72.779,90.909-90.935,136.568C7.274,298.649,0.009,342.627,0,380.071c0.009,22.92,2.718,43.402,7.51,60.582
		c2.413,8.59,5.358,16.361,8.878,23.235c3.528,6.892,7.606,12.937,12.615,17.946c5.088,5.08,11.23,9.217,18.268,12.807
		c10.559,5.357,23.183,9.46,37.653,12.327c14.445,2.858,30.728,4.443,48.412,4.443c37.566-0.017,81.535-7.161,127.064-25.142
		c45.502-17.973,92.538-46.826,135.784-90.082c43.446-43.437,72.448-90.594,90.508-136.184
		c18.086-45.598,25.299-89.576,25.308-127.081C511.991,109.67,509.229,88.901,504.368,71.512z M379.666,31.455
		c20.778-0.009,38.969,2.518,53.082,6.481c1.411,0.4,2.753,0.81,4.086,1.237c-5.61,1.377-11.595,3.128-18.007,5.28
		c-20.666,6.987-45.52,18.226-73.19,34.299c-16.587-15.028-31.449-27.111-43.315-35.972c-0.27-0.192-0.506-0.357-0.758-0.558
		C329.686,34.713,356.327,31.446,379.666,31.455z M54.136,264.394c16.7-41.939,43.49-85.577,84.087-126.166
		c40.398-40.388,83.87-67.046,125.74-83.643c6.351-2.526,12.632-4.73,18.888-6.804c5.306,3.668,11.796,8.416,19.166,14.218
		c8.782,6.891,18.87,15.332,29.76,25.081c-20.926,12.955-43.28,28.646-66.515,47.228l-19.532-19.533l-10.916,10.908l18.425,18.434
		c-10.193,8.502-20.551,17.554-31.006,27.198l-18.756-18.757l-10.908,10.916l18.383,18.374c-4.905,4.678-9.81,9.435-14.749,14.357
		c-4.922,4.94-9.688,9.853-14.366,14.732l-18.373-18.365l-10.908,10.916l18.714,18.714c-9.645,10.455-18.705,20.804-27.208,30.988
		l-18.382-18.373l-10.916,10.916l19.488,19.471c-15.707,19.611-29.35,38.568-41.033,56.566c-12.414-14-22.52-26.536-30.1-36.668
		c-4.608-6.168-8.232-11.404-10.899-15.533C52.864,267.844,53.439,266.128,54.136,264.394z M44.108,418.682
		c-2.222,6.56-4.024,12.685-5.419,18.391c-1.55-4.765-2.945-10.079-4.086-15.908c-2.352-11.857-3.737-25.752-3.737-41.094
		c-0.009-27.216,4.443-58.972,15.054-92.416c8.729,12.266,21.753,28.75,38.759,47.689c-4.426,7.232-8.564,14.314-12.362,21.171
		C59.45,379.792,50.198,400.771,44.108,418.682z M133.336,480.546c-21.1,0-39.587-2.57-53.944-6.595
		c-7.17-2.004-13.285-4.364-18.138-6.821c-4.852-2.448-8.364-5.027-10.437-7.109c-0.07-0.079-0.166-0.192-0.236-0.27
		c0.471-8.703,3.014-21.1,8.137-36.12c7.118-20.97,19.184-47.053,36.852-76.447c6.464,6.891,13.277,13.947,20.664,21.222
		c31.39,30.918,71.02,64.634,117.637,94.733C197.569,475.537,162.878,480.546,133.336,480.546z M458.004,248.625
		c-16.615,41.87-43.256,85.342-83.644,125.731c-39.239,39.247-81.483,65.418-122.368,81.996
		c-61.254-38.028-111.008-83.138-146.186-120.756c-0.628-0.662-1.194-1.306-1.821-1.969c11.612-18.164,25.325-37.417,41.268-57.42
		l16.396,16.396l10.917-10.916l-17.511-17.511c8.459-10.193,17.511-20.551,27.155-31.032l17.215,17.223l10.916-10.916
		l-17.588-17.607c4.669-4.879,9.426-9.801,14.365-14.723c4.931-4.94,9.844-9.696,14.732-14.366l17.59,17.59l10.916-10.916
		l-17.233-17.224c10.48-9.644,20.856-18.696,31.05-27.146l17.511,17.502l10.916-10.898l-16.387-16.405
		c23.688-18.835,46.356-34.534,67.413-47.34c36.642,34.264,80.394,82.344,117.794,141.473
		C460.295,242.457,459.24,245.525,458.004,248.625z M467.691,220.573c-35.554-53.944-75.706-98.157-110.206-130.836
		c2.178-1.237,4.364-2.484,6.508-3.659c22.607-12.44,42.863-21.301,59.773-26.999c15.089-5.131,27.564-7.64,36.311-8.11
		c0.261,0.244,0.583,0.488,0.81,0.723c2.073,2.056,4.608,5.532,7.03,10.306c3.659,7.144,7.048,17.118,9.417,29.167
		c2.387,12.04,3.798,26.17,3.798,41.756C481.133,158.901,477.161,188.931,467.691,220.573z"/>
</g>
</svg>