<?xml version="1.0" encoding="utf-8"?><!-- Uploaded to: SVG Repo, www.svgrepo.com, Generator: SVG Repo Mixer Tools -->
<svg fill="#000000" width="800px" height="800px" viewBox="0 0 50 50" xmlns="http://www.w3.org/2000/svg">
  <path id="Volleyball" d="M335,75a25,25,0,1,1,25-25A25,25,0,0,1,335,75Zm21.4-19.929a34.263,34.263,0,0,0-8.782-7.274c-5.025-2.973-9.535-4.508-13.364-4.526a33.094,33.094,0,0,0,1.207,6.082,37.715,37.715,0,0,1,10.053,4.2,38.406,38.406,0,0,1,8.784,7.01A21.9,21.9,0,0,0,356.4,55.071Zm-3.24,7.339a30.89,30.89,0,0,0-3.964-3.846c-2.215,3.386-6.2,6.991-11.34,9.887a40.6,40.6,0,0,1-7.058,3.129,21.863,21.863,0,0,0,22.362-9.169Zm-26.072,8.1a35.093,35.093,0,0,0,9.746-3.787c5.02-2.827,8.608-6.206,10.562-9.533-.909-.654-1.856-1.29-2.867-1.888-.72-.426-1.441-.807-2.161-1.173-2.166,3.482-6.237,7.229-11.548,10.22a39.954,39.954,0,0,1-8.5,3.6A21.993,21.993,0,0,0,327.088,70.51Zm-6.772-4.162a35.284,35.284,0,0,0,9.482-3.728c4.988-2.809,8.686-6.091,10.678-9.378a31.407,31.407,0,0,0-5.864-1.977,37.883,37.883,0,0,1-8.746,6.657,39.376,39.376,0,0,1-9.424,3.863A22.188,22.188,0,0,0,320.316,66.347ZM313,50a21.876,21.876,0,0,0,2.38,9.915,31.76,31.76,0,0,0,4.462-1.362A34.762,34.762,0,0,1,317,44a41.287,41.287,0,0,1,.7-7.542A21.807,21.807,0,0,0,313,50Zm7.508-16.505A35.375,35.375,0,0,0,319,44c0,5.682.954,10.376,2.763,13.749,1.025-.462,2.055-.978,3.082-1.557.752-.423,1.469-.869,2.166-1.323A34.189,34.189,0,0,1,324,40a40.055,40.055,0,0,1,1.132-9.629A22.089,22.089,0,0,0,320.508,33.495Zm7.05-4.169A35.252,35.252,0,0,0,326,40c0,5.938.744,10.413,2.655,13.737a31.024,31.024,0,0,0,4.745-4.229A38.86,38.86,0,0,1,332,39a39.045,39.045,0,0,1,1.477-10.923A21.933,21.933,0,0,0,327.558,29.326Zm8.113-1.292a30.936,30.936,0,0,0-1.2,4.994c4.031.238,9.121,1.886,14.174,4.876A39.991,39.991,0,0,1,356,43.45,22,22,0,0,0,335.671,28.034Zm11.984,11.619c-4.952-2.93-9.6-4.47-13.44-4.532A38.569,38.569,0,0,0,334,39c0,.734.037,1.448.076,2.16,4.084.158,9.324,1.808,14.529,4.888a39.036,39.036,0,0,1,8.247,6.438,20.566,20.566,0,0,0-.02-5.083A33.749,33.749,0,0,0,347.655,39.653Z" transform="translate(-310 -25)"/>
</svg>